<?xml version="1.0" encoding="UTF-8"?>
<svg width="500px" height="500px" viewBox="0 0 500 500" version="1.1" xmlns="http://www.w3.org/2000/svg" xmlns:xlink="http://www.w3.org/1999/xlink">
    <title>logo-icon-full-color</title>
    <defs>
        <linearGradient x1="49.9837102%" y1="49.9023408%" x2="49.9837102%" y2="0%" id="linearGradient-1">
            <stop stop-color="#724CDA" offset="0.0325795766%"></stop>
            <stop stop-color="#6554B0" offset="100%"></stop>
        </linearGradient>
    </defs>
    <g id="logo-icon-full-color" stroke="none" stroke-width="1" fill="none" fill-rule="evenodd">
        <g id="Group">
            <circle id="Oval" fill="url(#linearGradient-1)" cx="250" cy="250" r="250"></circle>
            <path d="M250.621891,90.7960199 C295.647709,90.7960199 336.110028,110.475949 364.00215,141.766721 C388.239531,168.957421 402.985075,204.915545 402.985075,244.346449 C402.985075,329.15402 334.773734,397.896877 250.621891,397.896877 C238.750578,397.896877 227.953366,397.161278 217.647355,395.228281 C194.631216,408.338684 168.698767,417.124836 148.36472,407.833637 C167.545193,398.390476 171.158207,387.681379 173.04731,378.754142 C173.147675,378.279853 173.241615,377.810004 173.329356,377.344351 C166.895399,373.231254 160.312999,368.358434 153.431992,362.60871 C119.726045,334.444238 98.2587065,291.923271 98.2587065,244.346449 C98.2587065,159.538877 166.470047,90.7960199 250.621891,90.7960199 Z M179.626147,303.379808 C203.167271,319.151353 227.132797,327.114428 251.408821,327.114428 C275.661429,327.114428 299.901611,319.167114 324.033576,303.427102 C327.220685,301.348318 328.073548,297.147556 325.938499,294.044438 C323.803451,290.941319 319.488989,290.110932 316.30188,292.189715 C294.35094,306.507159 272.751851,313.588573 251.408821,313.588573 C230.089207,313.588573 208.824543,306.52292 187.500927,292.237009 C184.340644,290.119755 180.0159,290.897782 177.84134,293.974781 C175.666779,297.05178 176.465865,301.262554 179.626147,303.379808 Z" id="Combined-Shape" fill="#FEFEFE"></path>
        </g>
    </g>
</svg>